<svg width="46" height="46" viewBox="0 0 46 46" fill="none" xmlns="http://www.w3.org/2000/svg">
<path d="M40.338 24.5256L27.4005 37.4631C26.9955 37.8681 26.4461 38.0957 25.8732 38.0957C25.3003 38.0957 24.7509 37.8681 24.3459 37.4631C23.9408 37.058 23.7132 36.5086 23.7132 35.9357C23.7132 35.3628 23.9408 34.8134 24.3459 34.4084L33.6016 25.1563H7.1875C6.61563 25.1563 6.06718 24.9291 5.6628 24.5247C5.25843 24.1203 5.03125 23.5719 5.03125 23C5.03125 22.4281 5.25843 21.8797 5.6628 21.4753C6.06718 21.0709 6.61563 20.8438 7.1875 20.8438H33.6016L24.3495 11.5863C23.9444 11.1812 23.7168 10.6318 23.7168 10.0589C23.7168 9.48605 23.9444 8.93665 24.3495 8.53157C24.7545 8.1265 25.3039 7.89893 25.8768 7.89893C26.4497 7.89893 26.9991 8.1265 27.4041 8.53157L40.3416 21.4691C40.5427 21.6697 40.7021 21.908 40.8108 22.1704C40.9195 22.4328 40.9753 22.7141 40.9749 22.9981C40.9746 23.2821 40.9182 23.5632 40.8089 23.8253C40.6996 24.0875 40.5396 24.3254 40.338 24.5256Z" fill="black"/>
</svg>
