<svg width="6956" height="4448" viewBox="0 0 6956 4448" fill="none" xmlns="http://www.w3.org/2000/svg">
<rect x="3023" y="175" width="537" height="3047" fill="#222222"/>
<rect x="3023" y="712" width="537" height="1624" transform="rotate(-90 3023 712)" fill="#222222"/>
<rect x="3024" y="2136" width="537" height="909" transform="rotate(-90 3024 2136)" fill="#222222"/>
<rect x="3023" y="3560" width="537" height="910" transform="rotate(-90 3023 3560)" fill="#222222"/>
<rect x="3023" y="4273" width="537" height="1622" transform="rotate(-90 3023 4273)" fill="#222222"/>
<rect x="4645" y="3736" width="537" height="2312" transform="rotate(-180 4645 3736)" fill="#222222"/>
<rect x="4645" y="2311" width="537" height="910" transform="rotate(90 4645 2311)" fill="#222222"/>
<rect x="4645" y="887" width="537" height="910" transform="rotate(90 4645 887)" fill="#222222"/>
<rect x="1599" y="1599" width="537" height="2674" fill="#222222"/>
<rect x="887" y="1599" width="537" height="2674" fill="#222222"/>
<rect x="887" y="2136" width="537" height="1249" transform="rotate(-90 887 2136)" fill="#222222"/>
<rect x="887" y="2848" width="537" height="1249" transform="rotate(-90 887 2848)" fill="#222222"/>
<rect x="5162" y="712" width="537" height="1558" transform="rotate(-90 5162 712)" fill="#222222"/>
<rect x="4820" y="176" width="537" height="4096" fill="#222222"/>
<rect x="5532" y="176" width="537" height="4097" fill="#222222"/>
<rect x="6244" y="176" width="537" height="4097" fill="#222222"/>
<rect x="175" y="176" width="537" height="4097" fill="#222222"/>
<rect x="175" y="712" width="537" height="1249" transform="rotate(-90 175 712)" fill="#222222"/>
<rect x="175" y="1424" width="537" height="1249" transform="rotate(-90 175 1424)" fill="#222222"/>
<rect x="1599" y="175" width="537" height="1251" fill="#222222"/>
<rect x="2311" y="175" width="537" height="4098" fill="#222222"/>
<rect x="1599" y="1144" width="537" height="1249" transform="rotate(-90 1599 1144)" fill="#222222"/>
</svg>
