<svg width="36" height="35" viewBox="0 0 36 35" fill="none" xmlns="http://www.w3.org/2000/svg">
<g clip-path="url(#clip0_230_2)">
<path d="M0.744228 15.353C0.774625 8.33146 0.789824 4.8207 2.96566 2.63553C5.1415 0.450347 8.63713 0.435214 15.6284 0.404949L20.2803 0.384811C27.4394 0.353819 31.0188 0.338324 33.2253 2.57357C35.4317 4.8088 35.3852 8.40355 35.2922 15.593L35.2329 20.1816C35.1424 27.1747 35.0971 30.6713 32.914 32.8357C30.7309 35 27.2491 35 20.2853 35H15.6731C8.59808 35 5.0606 35 2.86945 32.7897C0.678311 30.5796 0.693691 27.0268 0.724452 19.9213L0.744228 15.353Z" fill="#222222"/>
</g>
<defs>
<clipPath id="clip0_230_2">
<rect width="34.681" height="34.681" fill="white" transform="translate(0.659668 0.31897)"/>
</clipPath>
</defs>
</svg>
